**ABCDEFGHIJKLMNOPQRSTUVWXYZabcdefghijklmnopqrstuvwxyz**************************
**PARASOLID !"#$%&'()*+,-./:;<=>?@[\]^_`{|}~0123456789**************************
**PART1;
MC=unknown;
MC_MODEL=unknown;
MC_ID=unknown;
OS=unknown;
OS_RELEASE=unknown;
FRU=Parasolid 29.1.214;
APPL=Onshape;
SITE=unknown;
USER=unknown;
FORMAT=text;
GUISE=transmit;
KEY=BTGapi::writeModels_.xmt;
FILE=BTGapi::writeModels_.xmt;
DATE=2017-03-09T09:54:32 (UTC);
**PART2;
SCH=SCH_2901214_28101;
USFLD_SIZE=0;
**PART3;
**END_OF_HEADER*****************************************************************
T51 : TRANSMIT FILE created by modeller version 290121423 SCH_2901214_28101_1300
6204 0 10 19 CCCCCCCI4 mesh1006 0 I8 polyline1008 0 CCCCCCCCCCZ1 38 0 0 0 0 0 0
 0 0 0 1e3 1e-8 0 0 0 1 0 1 2 11 255 2 36 0 1 3 4 1 5 0 6 0 12 33 CCCCCCI4 mesh1
006 0 I8 polyline1008 0 CCCCCCCDI5 owner1040 0 CCCCCCI13 boundary_mesh1006 0 I17
 boundary_polyline1008 0 CCCA16 index_map_offset0 0 1 dA9 index_map82 0 A17 node
_id_index_map82 0 A20 schema_embedding_map82 0 A5 child12 0 A14 lowest_node_id0
 0 1 dZ3 49 7 8 0 0 0 0 0 0 1e3 1e-8 2 9 10 1 0 1 1 11 12 13 0 0 0 14 15 0 0 0 0
 0 0 0 100 255 4 37 2 0 0 1 0 0 0 1 0 0 0 1 -.0173919465853503 -.003557681952660
63 .019372021202283 1 1 ?11 5 33 0 1 10 16 1 17 2 18 0 12 10 299 19 20 0 0 0 0 0
 0 1e3 1e-8 5 3 21 1 0 1 1 22 23 24 25 0 0 26 27 28 0 0 0 0 0 0 100 16 34 5 0 0
 1 0 0 0 1 0 0 0 1 -.0173919465853503 -.00355768195266063 .019372021202283 1 1 ?
11 17 30 0 1 21 29 1 6 5 30 0 12 21 49 31 32 0 0 0 0 0 0 1e3 1e-8 17 10 33 1 0 1
 1 34 35 36 0 0 0 37 38 0 0 0 0 0 0 0 100 29 31 17 0 0 1 0 0 0 1 0 0 0 1 -.01739
19465853503 -.00355768195266063 .019372021202283 1 1 ?11 6 27 0 1 3 39 1 18 17 0
 2 100 39 28 6 0 0 .478835941793281 498265708106538e-36 -.877904403022877 -20541
64753716535e-37 1 366972507743211e-36 .877904403022877 -2178340346016705e-38 .47
8835941793281 -.0330268683315521 -.00855768195266053 .0457091532929695 1 3 ?11 1
8 24 0 1 10 40 1 30 6 0 5 100 40 25 18 0 0 .478835941793281 498265708106538e-36
 -.877904403022877 -2054164753716535e-37 1 366972507743211e-36 .877904403022877
 -2178340346016705e-38 .478835941793281 -.0330268683315521 -.00855768195266053 .
0457091532929695 1 3 ?11 30 21 0 1 21 41 1 42 18 0 17 100 41 22 30 0 0 .47883594
1793281 498265708106538e-36 -.877904403022877 -2054164753716535e-37 1 3669725077
43211e-36 .877904403022877 -2178340346016705e-38 .478835941793281 -.033026868331
5521 -.00855768195266053 .0457091532929695 1 3 ?11 42 18 0 1 43 44 1 45 30 0 0 1
2 43 49 46 47 0 0 0 0 0 0 1e3 1e-8 42 0 48 1 0 1 1 49 50 51 0 0 0 52 53 0 0 0 0
 0 0 0 100 44 19 42 0 0 .832106733153403 944487496581103e-36 .554615528669003 -7
77866746784773e-36 1 -464626708441318e-36 -.554615528669003 -216947615154077e-36
 .832106733153403 .00214087825108139 -.003557681952660495 .0581808971669311 1 3
 ?11 45 15 0 1 48 54 1 55 42 0 0 12 48 269 56 57 0 0 0 0 0 0 1e3 1e-8 45 43 9 1
 0 1 1 58 59 60 61 0 0 62 63 64 0 0 0 0 0 0 100 54 16 45 0 0 .832106733153403 94
4487496581103e-36 .554615528669003 -777866746784773e-36 1 -464626708441318e-36 -
.554615528669003 -216947615154077e-36 .832106733153403 .00214087825108139 -.0035
57681952660495 .0581808971669311 1 3 ?11 55 12 0 1 9 65 1 66 45 0 0 12 9 130 67
 68 0 0 0 0 0 0 1e3 1e-8 55 48 3 1 0 1 1 69 70 71 0 0 0 72 73 0 0 0 0 0 0 0 100
 65 13 55 0 0 .832106733153403 944487496581103e-36 .554615528669003 -77786674678
4773e-36 1 -464626708441318e-36 -.554615528669003 -216947615154077e-36 .83210673
3153403 .00214087825108139 -.003557681952660495 .0581808971669311 1 3 ?11 66 9 0
 1 33 74 1 75 55 0 0 12 33 39 76 77 0 0 0 0 0 0 1e3 1e-8 66 21 78 1 0 1 1 79 80
 81 0 0 0 82 83 0 0 0 0 0 0 0 100 74 10 66 0 0 -.382796043158026 51290709668051e
-35 .923832879552696 846655357280605e-36 1 3041580890890005e-38 -.92383287955269
9 -253116265289451e-37 -.382796043158027 .01720160593254605 -.00855768195266056
 .03045801575691555 1 3 ?11 75 6 0 1 78 84 1 85 66 0 0 12 78 464 86 87 0 0 0 0 0
 0 1e3 1e-8 75 33 88 1 0 1 1 89 90 91 0 0 0 92 93 0 0 0 0 0 0 0 100 84 7 75 0 0
 -.382796043158026 51290709668051e-35 .923832879552696 846655357280605e-36 1 304
1580890890005e-38 -.923832879552699 -253116265289451e-37 -.382796043158027 .0172
0160593254605 -.00855768195266056 .03045801575691555 1 3 ?11 85 3 0 1 88 94 1 0
 75 0 0 12 88 156 95 96 0 0 0 0 0 0 1e3 1e-8 85 78 0 1 0 1 1 97 98 99 100 0 0 10
1 102 103 0 0 0 0 0 0 100 94 4 85 0 0 -.382796043158026 51290709668051e-35 .9238
32879552696 846655357280605e-36 1 3041580890890005e-38 -.923832879552699 -253116
265289451e-37 -.382796043158027 .01720160593254605 -.00855768195266056 .03045801
575691555 1 3 ?81 255 1 95 156 104 88 105 0 0 0 106 70 11 CI9 list_type0 0 1 uI1
0 notransmit0 0 1 lCCCDCCDI12 finger_index0 0 1 dI12 finger_block1012 0 CZ96 0 4
 T88 0 0 3 20 1 107 107 13 255 97 5 0 88 0 108 0 0 109 0 50 255 98 145 0 110 111
 0 0 +-.0015 -.005 0 0 -1 0 1 0 0 31 255 99 133 0 102 112 0 0 +.012 -.005 483452
211301183e-33 0 -1 0 1 0 0 .004 29 255 100 141 0 113 114 0 -.015 -.005 .006 19 8
 CCCCCCCA5 owner12 0 Z101 3 0 88 109 0 115 V0 16 255 102 53 116 ?117 0 118 99 0
 0 88 18 255 103 72 119 120 0 121 122 ?88 81 1 119 73 123 103 0 0 124 125 126 17
 255 120 0 127 128 129 103 130 131 0 132 -18 121 70 124 133 103 134 135 ?88 29 1
22 136 0 103 136 137 -.015 0 -.006 29 136 135 0 138 139 122 .012 0 .006 29 137 1
37 0 140 122 141 -.015 0 .006 18 140 58 142 143 144 0 137 ?88 29 141 138 0 134 1
37 135 .012 -.005 -.006 18 134 68 145 146 121 138 141 ?88 29 135 139 0 121 141 1
14 .012 -.005 .006 29 114 140 0 147 135 100 -.015 -.005 -.006 18 147 62 148 149
 113 144 114 ?88 81 1 148 63 123 147 0 0 150 151 152 17 149 0 153 132 154 147 14
6 155 0 156 -18 113 64 151 157 138 147 100 ?88 18 144 60 150 130 147 140 139 ?88
 81 1 150 61 123 144 0 0 142 148 158 17 130 0 153 154 132 144 120 131 0 159 +29
 139 134 0 144 0 136 .012 0 -.006 15 255 153 81 0 130 160 0 17 154 0 153 149 130
 134 159 161 0 162 -17 132 0 153 130 149 103 163 164 0 165 +16 131 12 166 ?130 1
64 167 168 0 0 88 17 159 0 169 170 162 144 154 161 0 129 +15 169 85 0 170 171 0
 17 170 0 169 172 159 138 129 173 0 174 +17 162 0 169 159 172 134 133 175 0 0 -1
6 161 21 176 ?159 177 173 178 0 0 88 17 129 0 127 120 174 144 170 173 0 0 -15 12
7 101 0 128 179 0 17 174 0 127 129 128 138 180 181 0 0 +16 173 18 182 ?170 161 1
64 183 0 0 88 81 1 182 20 123 173 0 0 184 176 185 16 164 15 184 ?132 173 131 186
 0 0 88 31 183 126 0 173 187 188 0 +.012 0 483452211301183e-33 0 -1 0 1 0 0 .006
 30 255 187 125 0 181 168 183 0 +-.00161359917055846 0 .006 1 0 -271050543121376
e-34 31 188 127 0 189 183 190 0 +-.015 0 0 0 -1 0 1 0 0 .006 16 189 6 191 ?165 1
67 0 188 0 0 88 30 190 128 0 155 188 192 0 +-.002623436797574325 -.005 -.006 1 0
 0 16 155 33 193 ?146 175 194 190 0 0 88 30 192 129 0 177 190 195 0 +-.001613599
17055846 -.005 .006 1 0 -271050543121376e-34 16 177 24 196 ?197 198 161 192 0 0
 88 31 195 130 0 175 192 199 0 +.012 -.005 483452211301183e-33 0 -1 0 1 0 0 .006
 16 175 36 200 ?133 201 155 195 0 0 88 31 199 131 0 194 195 112 0 +-.015 -.005 0
 0 -1 0 1 0 0 .006 16 194 30 202 ?156 155 198 199 0 0 88 31 112 132 0 118 199 99
 0 +-.015 -.005 0 0 -1 0 1 0 0 .004 16 118 48 203 ?204 102 181 112 0 0 88 81 1 2
03 146 123 118 0 0 205 116 206 17 204 0 207 204 204 0 208 118 0 0 +16 181 45 209
 ?174 118 210 187 0 0 88 81 1 209 47 123 181 0 0 200 142 211 16 210 42 212 ?213
 181 201 214 0 0 88 81 1 212 150 123 210 0 0 215 216 217 17 213 0 218 213 213 0
 219 210 0 0 +16 201 39 216 ?220 210 175 221 0 0 88 31 214 119 0 210 221 222 0 +
-.015 0 0 0 -1 0 0 0 -1 .004 31 221 118 0 201 0 214 0 +.012 0 483452211301183e-3
3 0 -1 0 0 0 -1 .004 30 222 120 0 167 214 186 0 +-.015 -.005 .006 0 1 0 16 167 9
 223 ?143 131 189 222 0 0 88 30 186 121 0 164 222 224 0 +-.015 -.005 -.006 0 1 0
 30 224 122 0 198 186 178 0 +.012 -.005 .006 0 1 0 16 198 27 225 ?226 194 177 22
4 0 0 88 30 178 123 0 161 224 168 0 +.012 -.005 -.006 0 1 0 30 168 124 0 131 178
 187 0 +-.002623436797574325 0 -.006 1 0 0 81 1 225 29 123 198 0 0 196 202 227 1
7 226 0 228 180 197 138 172 198 0 170 +15 228 89 0 180 229 0 17 180 0 228 157 22
6 140 174 181 0 0 -17 197 0 228 226 157 121 230 177 0 0 +18 138 66 231 226 134 1
13 136 ?88 17 172 0 169 162 170 121 226 198 0 197 -81 1 231 67 123 138 0 0 151 1
45 232 80 255 1 123 233 234 9000 0 0 0 0 3 6 0 0 0 FFTFTFTTFFFFFF1 81 1 151 65 1
23 113 0 0 148 231 235 81 1 145 69 123 134 0 0 231 124 236 82 255 3 232 6 2 0 81
 1 124 71 123 121 0 0 145 119 237 82 3 236 6 7 0 82 3 237 6 3 0 82 3 235 6 1 0 7
9 255 9 234 BTI/DetId17 157 0 228 197 180 113 143 167 0 238 -17 230 0 239 156 13
3 113 197 177 0 0 -15 239 95 0 156 110 0 17 156 0 239 146 230 147 238 194 0 163
 +17 133 0 239 230 146 121 162 175 0 172 +17 146 0 239 133 156 134 149 155 0 154
 +17 238 0 240 143 163 113 156 194 0 230 -17 163 0 240 238 165 147 132 164 0 0 -
15 240 77 0 165 108 0 17 165 0 240 163 143 103 128 189 0 0 +17 143 0 240 165 238
 140 157 167 0 128 +17 128 0 127 174 120 140 165 189 0 180 -14 255 108 74 125 ?1
60 0 240 97 241 -0 0 160 0 115 81 1 125 76 123 108 0 0 119 242 243 14 160 78 242
 ?171 108 153 97 244 -0 0 171 108 115 51 255 241 112 0 108 0 245 0 --.015 -.005
 0 0 1 0 .006 0 0 1 13 115 4 0 0 0 0 0 0 101 108 51 245 113 0 171 241 246 0 -.01
2 -.005 483452211301183e-33 0 1 0 .006 0 0 1 14 171 82 247 ?229 160 169 97 245 -
0 0 229 160 115 50 246 114 0 229 245 244 0 +-.00161359917055846 -.005 .006 27105
0543121376e-34 0 1 1 0 -271050543121376e-34 14 229 86 205 ?110 171 228 97 246 +0
 0 110 171 115 50 244 115 0 160 246 248 0 +-.002623436797574325 -.005 -.006 0 0
 1 1 0 0 51 248 116 0 249 244 250 0 +-.015 .02 0 0 -1 0 .004 0 0 -1 14 249 102 2
51 ?252 179 207 97 248 -0 0 252 179 115 51 250 117 0 252 248 111 0 +.012 .02 483
452211301183e-33 0 -1 0 .004 0 0 -1 14 252 107 215 ?0 249 253 97 250 -0 0 0 249
 115 50 111 144 0 179 250 98 0 +-.0015 0 0 0 -1 0 1 0 0 14 179 96 254 ?249 110 2
55 97 111 -0 0 249 110 115 81 1 254 152 123 179 0 0 216 256 257 14 110 90 256 ?1
79 229 258 97 98 +0 0 179 229 115 15 255 99 0 220 179 218 17 220 0 255 220 220 0
 259 201 0 0 +15 218 100 0 213 179 127 17 259 0 260 259 259 0 220 201 0 0 -15 26
0 111 0 259 252 0 81 1 256 153 123 110 0 0 254 261 262 15 258 93 0 263 110 264 1
7 263 0 258 263 263 0 117 102 0 0 -15 264 94 0 208 110 239 17 208 0 264 208 208
 0 204 118 0 0 -17 117 0 253 117 117 0 263 102 0 0 +15 253 110 0 117 252 260 81
 1 261 154 123 88 0 105 256 0 265 82 3 262 10 7 2 81 1 105 155 266 88 261 95 0 0
 267 82 3 265 10 0 3 80 1 266 104 268 8038 0 0 0 0 0 0 0 0 0 TTTTTTTTTTTTTF10 98
 255 6 267 80 97 114 116 32 49 79 14 268 SDL/TYSA_UNAME81 1 216 151 123 201 0 0
 212 254 269 82 3 257 10 6 2 82 3 269 10 5 1 81 1 215 149 123 252 0 0 251 212 27
0 81 1 251 148 123 249 0 0 116 215 271 82 3 270 10 1 2 81 1 116 147 123 102 0 0
 203 251 272 82 3 271 10 0 2 82 3 272 10 1 1 15 207 105 0 204 249 273 15 273 106
 0 219 249 0 17 219 0 273 219 219 0 213 210 0 0 -81 1 205 88 123 229 0 0 247 203
 274 81 1 247 84 123 171 0 0 242 205 275 82 3 274 6 4 2 81 1 242 80 123 160 0 0
 125 247 276 82 3 275 6 3 2 82 3 276 6 5 2 82 3 243 6 0 2 81 1 196 26 123 177 0
 0 176 225 277 81 1 202 32 123 194 0 0 225 193 278 82 3 227 6 1 1 81 1 193 35 12
3 155 0 0 202 200 279 82 3 278 6 5 1 81 1 200 38 123 175 0 0 193 209 280 82 3 27
9 6 11 1 82 3 280 6 7 1 81 1 176 23 123 161 0 0 182 196 281 82 3 277 6 9 1 82 3
 281 6 3 1 81 1 223 11 123 167 0 0 191 166 282 81 1 191 8 123 189 0 0 0 223 283
 81 1 166 14 123 131 0 0 223 184 284 82 3 282 6 0 1 81 1 184 17 123 164 0 0 166
 182 285 82 3 284 6 10 1 82 3 285 6 2 1 82 3 283 6 4 1 82 3 217 10 4 1 81 1 142
 59 123 140 0 0 209 150 286 82 3 211 6 8 1 82 3 286 6 0 0 82 3 206 10 0 1 82 3 1
85 6 6 1 82 3 158 6 6 0 82 3 152 6 5 0 82 3 126 6 4 0 19 109 1 0 88 0 101 97 S0
 74 4 CI16 index_map_offset0 0 1 dCCZ20 107 3 0 0 261 105 95 0 0 0 0 0 0 0 0 0 0
 0 0 0 0 0 0 0 80 1 104 287 288 8017 0 0 0 0 0 0 0 0 0 TTTTTTTTTTTTTF3 84 255 6
 106 Part 179 13 288 SDL/TYSA_NAME81 1 86 464 104 78 289 0 0 0 290 70 87 0 4 T78
 0 0 3 20 1 291 291 13 89 443 0 78 0 292 0 0 293 0 50 90 125 0 292 294 0 0 +-.00
15 0 0 0 -1 0 1 0 0 31 91 256 0 93 295 0 0 +.012 0 483452211301183e-33 0 -1 0 0
 0 -1 .002 19 92 445 0 78 293 0 296 V0 16 93 309 297 ?298 0 299 91 0 0 78 81 1 2
97 459 123 93 0 0 300 301 302 17 298 0 303 298 298 0 304 93 0 0 +16 299 301 305
 ?306 93 0 295 0 0 78 81 1 305 457 123 299 0 0 0 300 307 17 306 0 308 306 306 0
 309 299 0 0 +31 295 423 0 299 0 91 0 +.012 -.005 483452211301183e-33 0 -1 0 1 0
 0 .002 15 308 279 0 306 310 0 17 309 0 311 309 309 0 306 299 0 0 -15 311 326 0
 309 312 303 14 312 333 300 ?310 292 311 89 313 +0 0 310 292 296 15 303 327 0 29
8 312 0 81 1 300 458 123 312 0 0 305 297 314 14 310 281 315 ?0 312 308 89 294 +0
 0 0 312 296 14 292 257 301 ?312 0 316 89 90 -0 0 312 0 296 51 313 414 0 312 0 2
94 0 +.012 .02 483452211301183e-33 0 -1 0 .002 0 0 -1 13 296 444 0 0 0 0 0 0 92
 292 50 294 2 0 310 313 90 0 +-.0015 -.005 0 0 -1 0 1 0 0 81 1 301 460 123 292 0
 0 297 315 317 15 316 255 0 304 292 0 17 304 0 316 304 304 0 298 93 0 0 -81 1 31
5 461 123 310 0 0 301 318 319 82 3 317 10 4 2 81 1 318 462 123 78 0 289 315 0 32
0 82 3 319 10 8 2 81 1 289 463 266 78 318 86 0 0 321 82 3 320 10 1 3 98 6 321 80
 97 114 116 32 50 82 3 314 10 2 2 82 3 307 10 2 1 82 3 302 10 6 1 19 293 155 0 7
8 0 92 89 S0 74 20 291 3 0 0 318 289 86 0 0 0 0 0 0 0 0 0 0 0 0 0 0 0 0 0 84 6 2
90 Part 281 1 76 39 104 33 322 0 0 0 323 70 77 0 4 T33 0 0 3 20 1 324 324 13 79
 5 0 33 0 325 0 0 326 0 50 80 31 0 327 328 0 0 +-.0015 -.005 0 0 -1 0 1 0 0 31 8
1 29 0 83 329 0 0 +-.015 -.005 0 0 -1 0 1 0 0 .002 19 82 3 0 33 326 0 330 V0 16
 83 9 331 ?332 0 333 81 0 0 33 81 1 331 32 123 83 0 0 0 334 335 17 332 0 336 332
 332 0 337 83 0 0 +16 333 6 338 ?339 83 0 329 0 0 33 81 1 338 34 123 333 0 0 334
 340 341 17 339 0 342 339 339 0 343 333 0 0 +31 329 28 0 333 0 81 0 +-.015 0 0 0
 -1 0 0 0 -1 .002 15 342 22 0 339 344 0 17 343 0 345 343 343 0 339 333 0 0 -15 3
45 17 0 343 325 0 14 325 14 340 ?344 0 345 79 328 -0 0 344 0 330 81 1 340 35 123
 325 0 0 338 346 347 14 344 18 334 ?327 325 348 79 349 +0 0 327 325 330 50 328 3
0 0 325 349 80 0 +-.0015 0 0 0 -1 0 1 0 0 13 330 4 0 0 0 0 0 0 82 325 51 349 27
 0 344 0 328 0 +-.015 .02 0 0 -1 0 .002 0 0 -1 81 1 334 33 123 344 0 0 331 338 3
50 14 327 23 346 ?0 344 336 79 80 +0 0 0 344 330 15 348 21 0 337 344 342 17 337
 0 348 337 337 0 332 83 0 0 -81 1 346 36 123 327 0 0 340 351 352 15 336 26 0 332
 327 0 81 1 351 37 123 33 0 322 346 0 353 82 3 352 10 9 2 81 1 322 38 266 33 351
 76 0 0 354 82 3 353 10 2 3 98 6 354 80 97 114 116 32 51 82 3 350 10 3 2 82 3 34
7 10 5 2 82 3 341 10 7 1 82 3 335 10 3 1 19 326 1 0 33 0 82 79 S0 74 20 324 3 0
 0 351 322 76 0 0 0 0 0 0 0 0 0 0 0 0 0 0 0 0 0 84 6 323 Part 381 1 67 130 104 9
 355 0 0 0 356 70 68 0 4 T9 0 0 3 20 1 357 357 13 69 118 0 9 0 358 0 0 359 0 51
 70 117 0 358 360 0 0 --.025 -.005 0 0 1 0 .002 0 0 1 31 71 112 0 361 362 0 0 +-
.025 0 0 0 -1 0 1 0 0 .002 19 72 90 0 9 359 0 363 V0 16 73 51 364 ?365 0 361 362
 0 0 9 81 1 364 124 123 73 0 0 366 367 368 17 365 0 369 365 365 0 370 73 0 0 +16
 361 107 366 ?371 73 0 71 0 0 9 31 362 52 0 73 0 71 0 +-.025 -.005 0 0 -1 0 1 0
 0 .002 81 1 366 123 123 361 0 0 0 364 372 17 371 0 373 371 371 0 374 361 0 0 +1
5 373 115 0 371 358 0 17 374 0 375 374 374 0 371 361 0 0 -15 375 106 0 374 376 0
 14 376 102 377 ?0 378 375 69 360 -0 0 0 378 363 81 1 377 126 123 376 0 0 367 37
9 380 14 378 8 379 ?376 358 369 69 381 +0 0 376 358 363 50 360 111 0 376 381 70
 0 +0 0 0 0 -1 0 1 0 0 13 363 93 0 0 0 0 0 0 72 358 14 358 114 367 ?378 0 382 69
 70 -0 0 378 0 363 81 1 367 125 123 358 0 0 364 377 383 15 382 113 0 370 358 373
 17 370 0 382 370 370 0 365 73 0 0 -82 3 383 6 0 2 50 381 2 0 378 0 360 0 +0 -.0
05 0 0 -1 0 1 0 0 81 1 379 127 123 378 0 0 377 384 385 15 369 11 0 365 378 0 81
 1 384 128 123 9 0 355 379 0 386 82 3 385 6 2 2 81 1 355 129 266 9 384 67 0 0 38
7 82 3 386 6 0 3 98 6 387 80 97 114 116 32 49 82 3 380 6 1 2 82 3 372 6 4 1 82 3
 368 6 5 1 19 359 119 0 9 0 72 69 S0 74 20 357 3 0 0 384 355 67 0 0 0 0 0 0 0 0
 0 0 0 0 0 0 0 0 0 84 6 356 Part 181 1 56 269 104 48 388 0 0 0 389 70 57 0 4 T48
 0 0 3 20 1 390 390 13 58 214 0 48 0 391 0 0 392 0 51 59 204 0 393 394 0 0 +.025
 -.005 0 0 1 0 .004 0 0 1 137 255 60 212 0 48 395 0 396 +397 398 0 ?29 61 175 0
 399 400 0 .025 0 .006 19 62 2 0 48 392 0 401 V0 16 63 179 402 ?403 0 404 405 0
 0 48 18 64 34 406 407 0 408 409 ?48 81 1 406 240 123 64 0 0 410 411 412 17 407
 0 413 414 415 64 403 63 0 416 -18 408 40 417 418 64 419 420 1e-7 48 29 409 68 0
 64 420 421 .025 -.005 .006 29 420 66 0 408 422 409 -.02502504900620045 -.005 .0
059999477120462 29 421 178 0 423 409 424 .025 0 -.006 18 423 161 411 425 426 0 4
21 ?48 29 424 177 0 426 421 400 -.025 0 -.006 18 426 157 427 428 429 423 424 ?48
 29 400 176 0 429 424 61 -.02502504900620045 0 .0059999477120462 18 429 153 430
 431 399 426 400 1e-7 48 81 1 430 235 123 429 0 0 0 417 432 17 431 0 433 434 428
 429 435 436 0 437 -18 399 149 410 403 438 429 61 ?48 81 1 410 239 123 399 0 0 4
39 406 440 17 403 0 441 442 416 399 407 63 0 434 +18 438 49 443 444 419 399 445
 ?48 81 1 443 242 123 438 0 0 411 446 447 17 444 0 448 449 450 438 451 452 0 453
 +18 419 43 439 451 408 438 422 ?48 29 445 63 0 438 0 422 .025 -.005 -.006 29 42
2 65 0 419 445 420 -.025 -.005 -.006 81 1 439 238 123 419 0 0 427 410 454 17 451
 0 455 456 453 419 444 452 0 450 -15 455 193 0 457 458 0 17 456 0 455 457 451 42
6 459 460 0 435 +17 453 0 455 451 457 438 425 461 0 414 -16 452 25 462 ?444 463
 464 465 0 0 48 17 450 0 448 444 466 419 418 463 0 459 +15 448 8 0 449 467 468 1
7 466 0 448 450 449 408 416 469 0 470 +17 418 0 471 437 459 408 450 463 0 466 -1
6 463 22 472 ?450 469 452 473 0 0 48 17 459 0 471 418 435 419 456 460 0 0 -15 47
1 191 0 435 474 0 17 435 0 471 459 437 426 431 436 0 0 +16 460 181 475 ?456 404
 461 476 0 0 48 81 1 475 244 123 460 0 0 446 402 477 16 404 180 446 1e-7 437 63
 460 0 0 0 48 16 461 182 478 ?425 460 479 480 0 0 48 30 476 207 0 460 405 480 0
 +-.025 -.005 -.006 0 1 0 30 405 205 0 63 481 476 0 +.025 -.005 .006 0 1 0 30 48
0 208 0 461 476 482 0 +.025 -.005 -.006 0 1 0 133 255 482 209 0 437 480 483 0 +4
83 -.02502504900620045 -.005 .0059999477120462 -.02502504900620045 0 .0059999477
120462 0 1 17 437 0 471 435 418 429 470 404 482 442 +137 483 210 0 48 482 395 48
4 +485 486 0 ?133 395 211 0 470 483 60 0 +60 -.02502504900620045 0 .006 -.025025
04900620045 -.005 .006 0 1 141 255 484 482 484 484 483 51 485 202 0 474 397 394
 487 --.025 -.005 0 0 1 0 .006 0 0 1 134 255 486 0 0 0 0 0 0 +488 489 136 255 48
8 1 2 2 2 5 FFF1 490 491 492 135 255 489 1 0 45 255 4 490 6.27901046068538 0 6.2
7901046068538 .005 127 255 2 491 2 2 128 255 2 492 0 1 14 474 192 493 ?458 494 4
71 58 485 -0 0 458 494 401 50 397 201 0 494 495 485 496 +.01251252461224794 -.00
5 .006 0 0 -1 -1 0 0 50 394 203 0 458 485 59 0 +-.01218000848099386 -.005 -.006
 0 0 1 1 0 0 141 487 483 487 487 485 14 458 194 497 ?498 474 455 58 394 -0 0 498
 474 401 81 1 497 264 123 458 0 0 499 500 501 14 498 184 502 ?393 458 503 58 504
 +0 0 393 458 401 13 401 3 0 0 0 0 0 0 62 391 14 391 188 505 ?494 0 413 58 495 +
0 0 494 0 401 81 1 505 266 123 391 0 0 500 506 507 14 494 190 499 ?474 391 441 5
8 397 -0 0 474 391 401 15 413 187 0 415 391 0 51 495 200 0 391 504 397 0 +.025 -
.005 0 0 1 0 .006 0 0 1 51 504 199 0 498 508 495 0 --.025 -.005 0 0 1 0 .004 0 0
 1 50 508 165 0 509 510 504 0 +0 0 0 0 -1 0 1 0 0 14 509 107 511 ?0 467 512 58 5
08 -0 0 0 467 401 50 510 70 0 467 0 508 0 +0 -.005 0 0 -1 0 1 0 0 14 467 4 513 ?
509 393 514 58 510 +0 0 509 393 401 81 1 513 261 123 467 0 0 511 493 515 14 393
 196 500 ?467 498 516 58 59 -0 0 467 498 401 15 514 7 0 517 467 448 17 517 0 514
 517 517 0 518 479 0 0 -17 518 0 503 518 518 0 517 479 0 0 +16 479 10 519 ?518 4
61 520 521 0 0 48 81 1 519 248 123 479 0 0 522 523 524 16 520 13 525 ?414 479 46
9 526 0 0 48 31 521 62 0 479 526 527 0 +-.025 -.005 0 0 -1 0 1 0 0 .004 133 526
 61 0 520 528 521 0 +528 .025 -.005 .006 .025 -.005 -.006 0 3.141592653589795 13
3 527 71 0 469 521 529 0 +529 .025 -.005 .006 -.0250250492244959 -.005 .006 -.01
248747538775206 .03753757383674385 16 469 16 530 ?466 520 463 527 0 0 48 30 529
 72 0 48 527 531 532 +.01251252461224794 -.005 .006 -1 0 0 31 531 174 0 533 529
 534 0 +.025 0 0 0 1 0 -1 0 0 .004 141 532 527 532 532 529 16 533 145 535 ?536 5
37 0 531 0 0 48 30 534 173 0 537 531 538 0 +-.01218000848099386 0 -.006 1 0 0 16
 537 139 539 ?457 436 533 534 0 0 48 31 538 172 0 48 534 540 541 +-.025 0 0 0 -1
 0 0 0 1 .006 133 540 171 0 436 538 542 0 +538 -.02502504900620045 0 .0059999477
120462 -.025 0 -.006 .004174846494201305 3.141592653589795 141 541 540 541 541 5
38 16 436 135 523 ?435 543 537 540 0 0 48 31 542 170 0 48 540 544 545 +.025 0 0
 0 1 0 0 0 1 .006 133 544 169 0 546 542 547 0 +542 .025 0 .006 .025 0 -.006 0 3.
141592653589795 141 545 544 545 545 542 16 546 125 548 ?549 550 543 544 0 0 48 3
1 547 168 0 550 544 551 0 +-.025 0 0 0 -1 0 1 0 0 .004 16 550 121 522 ?552 464 5
46 547 0 0 48 133 551 167 0 543 547 481 0 +481 .025 0 .006 -.0250250492244959 0
 .006 -.01248747538775206 .03753757383674385 16 543 129 553 ?442 546 436 551 0 0
 48 30 481 166 0 48 551 405 554 +.01251252461224794 0 .006 -1 0 0 141 554 551 55
4 554 481 81 1 553 251 123 543 0 0 472 530 555 17 442 0 441 470 403 429 434 543
 0 0 +15 441 189 0 442 494 0 17 470 0 441 416 442 408 437 404 395 0 -17 434 0 43
3 549 431 399 442 543 0 415 -15 433 119 0 549 509 556 17 549 0 433 428 434 423 4
15 546 0 0 +17 415 0 413 407 425 399 549 546 0 0 -17 425 0 413 415 414 423 453 4
61 0 457 +17 414 0 413 425 407 438 449 520 0 0 +17 457 0 455 453 456 423 428 537
 0 549 +17 428 0 433 431 549 426 457 537 0 456 -17 449 0 448 466 444 64 414 520
 0 0 -15 556 120 0 557 509 0 17 557 0 556 557 557 0 536 533 0 0 -17 536 0 558 53
6 536 0 557 533 0 0 +15 558 197 0 536 393 0 17 416 0 441 403 470 64 466 469 0 44
9 -81 1 472 250 123 463 0 0 523 553 559 81 1 530 252 123 469 0 0 553 539 560 82
 3 555 6 10 1 81 1 539 253 123 537 0 0 530 462 561 82 3 560 6 11 1 81 1 462 254
 123 452 0 0 539 535 562 82 3 561 6 12 1 81 1 535 255 123 533 0 0 462 563 564 82
 3 562 6 13 1 81 1 563 256 123 464 0 0 535 548 565 82 3 564 6 16 1 16 464 31 563
 ?566 452 550 567 0 0 48 81 1 548 257 123 546 0 0 563 525 568 82 3 565 6 17 1 81
 1 525 258 123 520 0 0 548 502 569 82 3 568 6 18 1 81 1 502 259 123 498 0 0 525
 511 570 82 3 569 6 19 1 81 1 511 260 123 509 0 0 502 513 571 82 3 570 6 3 2 82
 3 571 6 4 2 17 566 0 468 566 566 0 572 464 0 0 +31 567 52 0 464 0 465 0 +.025 -
.005 0 0 1 0 -1 0 0 .004 30 465 54 0 452 567 573 0 +-.01218000848099386 -.005 -.
006 1 0 0 31 573 55 0 48 465 473 574 +-.025 -.005 0 0 -1 0 0 0 1 .006 133 473 56
 0 463 573 528 0 +573 -.02502504900620045 -.005 .0059999477120462 -.025 -.005 -.
006 .004174846494201305 3.141592653589795 141 574 473 574 574 573 31 528 60 0 48
 473 526 575 +.025 -.005 0 0 1 0 0 0 1 .006 141 575 526 575 575 528 15 468 9 0 5
66 467 0 17 572 0 516 572 572 0 566 464 0 0 -15 516 195 0 572 393 558 81 1 523 2
49 123 436 0 0 519 472 576 82 3 559 6 9 1 82 3 576 6 8 1 81 1 522 247 123 550 0
 0 478 519 577 17 552 0 512 552 552 0 578 550 0 0 +15 512 118 0 552 509 433 17 5
78 0 579 578 578 0 552 550 0 0 -15 579 185 0 578 498 0 81 1 478 246 123 461 0 0
 402 522 580 82 3 577 6 6 1 81 1 402 245 123 63 0 0 475 478 581 82 3 580 6 3 1 8
2 3 581 6 2 1 82 3 524 6 7 1 15 503 183 0 518 498 579 81 1 500 265 123 393 0 0 4
97 505 582 82 3 582 6 12 2 81 1 493 262 123 474 0 0 513 499 583 82 3 515 6 5 2 8
1 1 499 263 123 494 0 0 493 497 584 82 3 583 6 6 2 82 3 584 6 7 2 81 1 506 267 1
23 48 0 388 505 0 585 82 3 507 6 13 2 81 1 388 268 266 48 506 56 0 0 586 82 3 58
5 6 1 3 98 6 586 80 97 114 116 32 50 82 3 501 6 8 2 141 496 60 496 496 397 81 1
 446 243 123 404 0 0 443 475 587 82 3 587 6 0 1 82 3 477 6 1 1 81 1 427 237 123
 426 0 0 417 439 588 82 3 454 6 3 0 81 1 417 236 123 408 0 0 430 427 589 82 3 58
8 6 2 0 82 3 589 6 1 0 81 1 411 241 123 423 0 0 406 443 590 82 3 447 6 7 0 82 3
 590 6 6 0 82 3 440 6 4 0 82 3 432 6 0 0 82 3 412 6 5 0 19 392 215 0 48 0 62 58
 S0 141 396 395 396 396 60 134 398 0 0 0 0 0 0 +591 592 136 591 1 2 2 2 5 FFF1 5
93 594 595 135 592 1 0 45 4 593 .0375375736184484 .005 .0375375736184484 0 127 2
 594 2 2 128 2 595 0 1 74 20 390 3 0 0 506 388 56 0 0 0 0 0 0 0 0 0 0 0 0 0 0 0
 0 0 84 6 389 Part 281 1 46 49 104 43 596 0 0 0 597 70 47 0 4 T43 0 0 3 20 1 598
 598 13 49 37 0 43 0 599 0 0 600 0 51 50 36 0 599 601 0 0 +.025 -.005 0 0 1 0 .0
02 0 0 1 31 51 31 0 602 603 0 0 +.025 0 0 0 1 0 -1 0 0 .002 19 52 2 0 43 600 0 6
04 V0 16 53 8 605 ?606 0 602 603 0 0 43 81 1 605 43 123 53 0 0 607 608 609 17 60
6 0 610 606 606 0 611 53 0 0 +16 602 26 607 ?612 53 0 51 0 0 43 31 603 11 0 53 0
 51 0 +.025 -.005 0 0 1 0 -1 0 0 .002 81 1 607 42 123 602 0 0 0 605 613 17 612 0
 614 612 612 0 615 602 0 0 +15 614 25 0 612 616 0 17 615 0 617 615 615 0 612 602
 0 0 -15 617 34 0 615 599 0 14 599 33 608 ?618 0 610 49 50 +0 0 618 0 604 81 1 6
08 44 123 599 0 0 605 619 620 14 618 4 621 ?616 599 622 49 623 +0 0 616 599 604
 15 610 32 0 606 599 617 13 604 3 0 0 0 0 0 0 52 599 81 1 621 46 123 618 0 0 619
 624 625 14 616 21 619 ?0 618 614 49 601 -0 0 0 618 604 15 622 7 0 611 618 0 50
 623 12 0 618 0 601 0 +0 -.005 0 0 -1 0 1 0 0 50 601 30 0 616 623 50 0 +0 0 0 0
 -1 0 1 0 0 17 611 0 622 611 611 0 606 53 0 0 -81 1 619 45 123 616 0 0 608 621 6
26 82 3 626 6 10 2 81 1 624 47 123 43 0 596 621 0 627 82 3 625 6 11 2 81 1 596 4
8 266 43 624 46 0 0 628 82 3 627 6 2 3 98 6 628 80 97 114 116 32 51 82 3 620 6 9
 2 82 3 613 6 14 1 82 3 609 6 15 1 19 600 38 0 43 0 52 49 S0 74 20 598 3 0 0 624
 596 46 0 0 0 0 0 0 0 0 0 0 0 0 0 0 0 0 0 84 6 597 Part 381 1 31 49 104 21 629 0
 0 0 630 70 32 0 4 T21 0 0 3 20 1 631 631 13 34 37 0 21 0 632 0 0 633 0 51 35 36
 0 632 634 0 0 --.03 -.005 0 0 1 0 .002 0 0 1 31 36 31 0 635 636 0 0 +-.03 0 0 0
 -1 0 1 0 0 .002 19 37 2 0 21 633 0 637 V0 16 38 8 638 ?639 0 635 636 0 0 21 81
 1 638 43 123 38 0 0 640 641 642 17 639 0 643 639 639 0 644 38 0 0 +16 635 26 64
0 ?645 38 0 36 0 0 21 31 636 11 0 38 0 36 0 +-.03 -.005 0 0 -1 0 1 0 0 .002 81 1
 640 42 123 635 0 0 0 638 646 17 645 0 647 645 645 0 648 635 0 0 +15 647 34 0 64
5 632 0 17 648 0 649 648 648 0 645 635 0 0 -15 649 25 0 648 650 0 14 650 21 651
 ?0 652 649 34 634 -0 0 0 652 637 81 1 651 45 123 650 0 0 641 653 654 14 652 4 6
53 ?650 632 643 34 655 +0 0 650 632 637 50 634 30 0 650 655 35 0 +0 0 0 0 -1 0 1
 0 0 13 637 3 0 0 0 0 0 0 37 632 14 632 33 641 ?652 0 656 34 35 -0 0 652 0 637 8
1 1 641 44 123 632 0 0 638 651 657 15 656 32 0 644 632 647 17 644 0 656 644 644
 0 639 38 0 0 -82 3 657 6 0 2 50 655 12 0 652 0 634 0 +0 -.005 0 0 -1 0 1 0 0 81
 1 653 46 123 652 0 0 651 658 659 15 643 7 0 639 652 0 81 1 658 47 123 21 0 629
 653 0 660 82 3 659 6 2 2 81 1 629 48 266 21 658 31 0 0 661 82 3 660 6 0 3 98 6
 661 80 97 114 116 32 49 82 3 654 6 1 2 82 3 646 6 4 1 82 3 642 6 5 1 19 633 38
 0 21 0 37 34 S0 74 20 631 3 0 0 658 629 31 0 0 0 0 0 0 0 0 0 0 0 0 0 0 0 0 0 84
 6 630 Part 181 1 19 299 104 10 662 0 0 0 663 70 20 0 4 T10 0 0 3 20 1 664 664 1
3 22 244 0 10 0 665 0 0 666 0 50 23 239 0 665 667 0 0 +-.01505238379557225 -.005
 .006 0 0 1 1 0 0 30 24 243 0 27 668 0 0 +-.03 -.005 .006 0 1 0 29 25 210 0 669
 670 0 .03 0 .006 19 26 101 0 10 666 0 671 V0 16 27 217 672 ?673 0 674 24 0 0 10
 18 28 90 675 676 0 677 678 ?10 81 1 675 270 123 28 0 0 679 680 681 17 676 0 682
 683 684 28 685 686 0 687 -18 677 85 688 689 28 690 691 ?10 29 678 92 0 28 691 6
92 .03 -.005 .006 29 691 87 0 677 693 678 .03 -.005 -.006 29 692 213 0 694 678 6
95 -.03 0 .006 18 694 199 696 673 697 0 692 ?10 29 695 212 0 697 692 670 -.03 0
 -.006 18 697 195 698 699 700 694 695 ?10 29 670 211 0 700 695 25 .03 0 -.006 18
 700 191 680 701 669 697 670 ?10 81 1 680 271 123 700 0 0 675 688 702 17 701 0 6
82 684 683 700 703 704 0 705 +18 669 187 679 685 706 700 25 ?10 81 1 679 269 123
 669 0 0 707 675 708 17 685 0 709 710 711 669 676 686 0 684 +18 706 70 712 713 6
90 669 714 ?10 81 1 712 266 123 706 0 0 696 698 715 17 713 0 709 711 710 706 673
 27 0 716 -18 690 75 707 717 677 706 693 ?10 29 714 72 0 706 0 693 -.03 -.005 .0
06 29 693 77 0 690 714 691 -.03 -.005 -.006 81 1 707 268 123 690 0 0 698 679 718
 17 717 0 719 689 720 690 716 721 0 722 +15 719 5 0 720 723 724 17 689 0 719 687
 717 677 725 726 0 703 +17 720 0 719 717 687 706 711 727 0 0 -17 716 0 728 673 7
22 706 717 721 0 720 -16 721 63 729 ?717 686 730 731 0 0 10 17 722 0 728 716 699
 690 732 674 0 725 -15 728 218 0 699 733 0 17 699 0 728 722 673 697 734 735 0 73
2 +17 732 0 736 705 725 697 722 674 0 737 +16 674 216 738 ?732 27 704 668 0 0 10
 17 725 0 736 732 703 690 689 726 0 0 -15 736 230 0 705 739 0 17 703 0 736 725 7
05 677 701 704 0 683 -16 726 32 740 ?689 741 727 742 0 0 10 81 1 740 284 123 726
 0 0 743 744 745 16 741 48 746 ?683 747 726 748 0 0 10 16 727 24 749 ?711 726 73
5 750 0 0 10 30 742 33 0 726 731 748 0 +-.01502656609096925 -.005 -.006 1 0 0 31
 731 29 0 721 750 742 0 +-.03 -.005 0 0 -1 0 1 0 0 .006 31 748 41 0 741 742 751
 0 +.03 -.005 0 0 1 0 -1 0 0 .006 31 751 52 0 747 748 752 0 +.03 -.005 0 0 1 0 -
1 0 0 .004 16 747 51 753 ?754 730 741 751 0 0 10 31 752 60 0 730 751 755 0 +-.03
 -.005 0 0 -1 0 1 0 0 .004 16 730 59 756 ?757 721 747 752 0 0 10 30 755 209 0 75
8 752 759 0 +-.01505238379557225 0 .006 1 0 0 16 758 181 760 ?761 762 0 755 0 0
 10 31 759 208 0 735 755 763 0 +-.03 0 0 0 -1 0 1 0 0 .006 16 735 159 764 ?699 7
27 765 759 0 0 10 30 763 207 0 762 759 766 0 +-.01502656609096925 0 -.006 1 0 0
 16 762 175 743 ?705 767 758 763 0 0 10 31 766 206 0 767 763 768 0 +.03 0 0 0 1
 0 -1 0 0 .006 16 767 171 769 ?770 771 762 766 0 0 10 31 768 205 0 771 766 772 0
 +.03 0 0 0 1 0 -1 0 0 .004 16 771 167 744 ?773 765 767 768 0 0 10 31 772 204 0
 765 768 774 0 +-.03 0 0 0 -1 0 1 0 0 .004 16 765 163 775 ?776 735 771 772 0 0 1
0 30 774 240 0 686 772 777 0 +.03 -.005 .006 0 1 0 16 686 214 778 ?685 704 721 7
74 0 0 10 30 777 241 0 704 774 668 0 +.03 -.005 -.006 0 1 0 16 704 215 779 ?701
 674 686 777 0 0 10 30 668 242 0 674 777 24 0 +-.03 -.005 -.006 0 1 0 81 1 779 2
76 123 704 0 0 778 775 780 81 1 778 275 123 686 0 0 738 779 781 81 1 775 277 123
 765 0 0 779 756 782 82 3 780 6 3 1 81 1 756 278 123 730 0 0 775 764 783 82 3 78
2 6 6 1 81 1 764 279 123 735 0 0 756 729 784 82 3 783 6 7 1 81 1 729 280 123 721
 0 0 764 760 785 82 3 784 6 8 1 81 1 760 281 123 758 0 0 729 749 786 82 3 785 6
 9 1 81 1 749 282 123 727 0 0 760 743 787 82 3 786 6 10 1 81 1 743 283 123 762 0
 0 749 740 788 82 3 787 6 11 1 82 3 788 6 12 1 81 1 738 274 123 674 0 0 672 778
 789 82 3 781 6 2 1 81 1 672 273 123 27 0 0 688 738 790 82 3 789 6 1 1 81 1 688
 272 123 677 0 0 680 672 791 82 3 790 6 0 1 82 3 791 6 7 0 17 776 0 792 776 776
 0 793 765 0 0 +15 792 158 0 776 794 0 17 793 0 795 793 793 0 776 765 0 0 -15 79
5 222 0 793 796 0 14 796 221 797 ?723 798 799 22 800 +0 0 723 798 671 81 1 797 2
89 123 796 0 0 746 801 802 14 723 1 803 ?794 796 719 22 804 +0 0 794 796 671 14
 798 229 805 ?796 806 682 22 807 +0 0 796 806 671 15 799 220 0 757 796 795 51 80
0 235 0 796 808 809 0 --.03 -.005 0 0 1 0 .004 0 0 1 13 671 104 0 0 0 0 0 0 26 6
65 14 665 233 810 ?733 0 709 22 23 +0 0 733 0 671 81 1 810 293 123 665 0 0 811 8
12 813 14 733 219 811 ?739 665 728 22 808 -0 0 739 665 671 15 709 232 0 710 665
 0 17 710 0 709 713 685 694 761 758 0 0 -17 761 0 814 770 734 669 710 758 0 0 +1
5 814 156 0 761 794 815 17 770 0 814 737 761 700 684 767 0 0 +17 734 0 814 761 7
37 694 699 735 0 710 -17 737 0 814 734 770 697 705 762 0 0 -17 705 0 736 703 732
 700 737 762 0 770 +17 684 0 682 676 701 669 770 767 0 761 -15 682 228 0 684 798
 0 14 794 143 801 ?0 723 814 22 816 -0 0 0 723 671 15 815 157 0 817 794 792 17 8
17 0 815 817 817 0 773 771 0 0 -17 773 0 818 773 773 0 817 771 0 0 +15 818 226 0
 773 806 0 14 806 225 819 ?798 739 820 22 809 -0 0 798 739 671 81 1 819 295 123
 806 0 0 812 805 821 14 739 231 812 ?806 733 736 22 667 -0 0 806 733 671 15 820
 224 0 822 806 818 51 809 236 0 806 800 807 0 +.03 -.005 0 0 1 0 .004 0 0 1 51 8
07 237 0 798 809 667 0 +.03 -.005 0 0 1 0 .006 0 0 1 50 667 238 0 739 807 23 0 +
-.01502656609096925 -.005 -.006 0 0 1 1 0 0 17 822 0 820 822 822 0 754 747 0 0 -
17 754 0 724 754 754 0 822 747 0 0 +15 724 10 0 754 723 823 15 823 18 0 824 723
 0 17 824 0 823 824 824 0 757 730 0 0 -17 757 0 799 757 757 0 824 730 0 0 +81 1
 812 294 123 739 0 0 810 819 825 82 3 825 6 8 2 81 1 805 296 123 798 0 0 819 826
 827 82 3 821 6 12 2 81 1 826 297 123 10 0 662 805 0 828 82 3 827 6 13 2 81 1 66
2 298 266 10 826 19 0 0 829 82 3 828 6 1 3 98 6 829 80 97 114 116 32 50 81 1 801
 290 123 794 0 0 797 803 830 50 816 203 0 794 804 808 0 +0 0 0 0 -1 0 1 0 0 50 8
04 2 0 723 0 816 0 +0 -.005 0 0 -1 0 1 0 0 51 808 234 0 733 816 800 0 --.03 -.00
5 0 0 1 0 .006 0 0 1 81 1 803 291 123 723 0 0 801 811 831 82 3 830 6 4 2 81 1 81
1 292 123 733 0 0 803 810 832 82 3 831 6 5 2 82 3 832 6 6 2 82 3 813 6 7 2 81 1
 746 288 123 741 0 0 769 797 833 82 3 802 6 3 2 81 1 769 287 123 767 0 0 753 746
 834 82 3 833 6 19 1 81 1 753 286 123 747 0 0 744 769 835 82 3 834 6 18 1 81 1 7
44 285 123 771 0 0 740 753 836 82 3 835 6 17 1 82 3 836 6 16 1 30 750 25 0 727 0
 731 0 +-.01505238379557225 -.005 .006 1 0 0 17 711 0 709 685 713 28 720 727 0 0
 +17 683 0 682 701 676 677 687 741 0 0 +17 687 0 719 720 689 28 683 741 0 711 -8
2 3 745 6 13 1 17 673 0 728 699 716 694 713 27 0 734 +81 1 698 267 123 697 0 0 7
12 707 837 82 3 718 6 3 0 82 3 837 6 2 0 81 1 696 265 123 694 0 0 0 712 838 82 3
 715 6 1 0 82 3 838 6 0 0 82 3 708 6 4 0 82 3 702 6 6 0 82 3 681 6 5 0 19 666 24
5 0 10 0 26 22 S0 74 20 664 3 0 0 826 662 19 0 0 0 0 0 0 0 0 0 0 0 0 0 0 0 0 0 8
4 6 663 Part 281 1 7 49 104 3 839 0 0 0 840 70 8 0 4 T3 0 0 3 20 1 841 841 13 11
 37 0 3 0 842 0 0 843 0 51 12 36 0 842 844 0 0 +.03 -.005 0 0 1 0 .002 0 0 1 31
 13 31 0 845 846 0 0 +.03 0 0 0 1 0 -1 0 0 .002 19 14 2 0 3 843 0 847 V0 16 15 8
 848 ?849 0 845 846 0 0 3 81 1 848 43 123 15 0 0 850 851 852 17 849 0 853 849 84
9 0 854 15 0 0 +16 845 26 850 ?855 15 0 13 0 0 3 31 846 11 0 15 0 13 0 +.03 -.00
5 0 0 1 0 -1 0 0 .002 81 1 850 42 123 845 0 0 0 848 856 17 855 0 857 855 855 0 8
58 845 0 0 +15 857 25 0 855 859 0 17 858 0 860 858 858 0 855 845 0 0 -15 860 34
 0 858 842 0 14 842 33 851 ?861 0 853 11 12 +0 0 861 0 847 81 1 851 44 123 842 0
 0 848 862 863 14 861 4 864 ?859 842 865 11 866 +0 0 859 842 847 15 853 32 0 849
 842 860 13 847 3 0 0 0 0 0 0 14 842 81 1 864 46 123 861 0 0 862 867 868 14 859
 21 862 ?0 861 857 11 844 -0 0 0 861 847 15 865 7 0 854 861 0 50 866 12 0 861 0
 844 0 +0 -.005 0 0 -1 0 1 0 0 50 844 30 0 859 866 12 0 +0 0 0 0 -1 0 1 0 0 17 8
54 0 865 854 854 0 849 15 0 0 -81 1 862 45 123 859 0 0 851 864 869 82 3 869 6 10
 2 81 1 867 47 123 3 0 839 864 0 870 82 3 868 6 11 2 81 1 839 48 266 3 867 7 0 0
 871 82 3 870 6 2 3 98 6 871 80 97 114 116 32 51 82 3 863 6 9 2 82 3 856 6 14 1
 82 3 852 6 15 1 19 843 38 0 3 0 14 11 S0 74 20 841 3 0 0 867 839 7 0 0 0 0 0 0
 0 0 0 0 0 0 0 0 0 0 0 84 6 840 Part 31 0 
